{"accessors":[{"bufferView":0,"byteOffset":0,"componentType":5126,"count":12760,"max":[312295.4428,5975308.2021,-19.4],"min":[298795.4428,5948058.2021,-77.10535],"type":"VEC3"},{"bufferView":1,"byteOffset":0,"componentType":5126,"count":12760,"normalized":false,"type":"VEC2"},{"bufferView":2,"byteOffset":0,"componentType":5125,"count":72588,"type":"SCALAR"}],"asset":{"generator":"VTK","version":"2.0"},"bufferViews":[{"buffer":0,"byteLength":153120,"byteOffset":0,"target":34962},{"buffer":1,"byteLength":102080,"byteOffset":0,"target":34962},{"buffer":2,"byteLength":290352,"byteOffset":0,"target":34963},{"buffer":3,"byteLength":271,"byteOffset":0,"target":34962}],"buffers":[{"byteLength":153120,"uri":"data:application/octet-stream;base64,"},{"byteLength":102080,"uri":"data:application/octet-stream;base64,"},{"byteLength":290352,"uri":"data:application/octet-stream;base64,"},{"byteLength":271,"uri":"data:application/octet-stream;base64,"}],"cameras":[{"perspective":{"aspectRatio":1.3333333333333333,"yfov":0.5235987755982988,"zfar":1000.01,"znear":0.01},"type":"perspective"}],"images":[{"bufferView":3,"mimeType":"image/png"}],"materials":[{"pbrMetallicRoughness":{"baseColorFactor":[0.6784313725490196,0.8470588235294118,0.9019607843137255,1.0],"baseColorTexture":{"index":0,"texCoord":0},"metallicFactor":0.0,"roughnessFactor":1.0}}],"meshes":[{"name":"mesh0","primitives":[{"attributes":{"POSITION":0,"TEXCOORD_0":1},"indices":2,"material":0,"mode":4}]}],"nodes":[{"matrix":[0.0,0.0,1.0000000000000004,0.0,1.0000000000000004,0.0,0.0,0.0,0.0,1.0000000000000004,0.0,0.0,0.0,0.0,0.0,1.0],"mesh":0,"name":"mesh0"},{"camera":0,"matrix":[1.0,-0.0,0.0,-0.0,-0.0,1.0,-0.0,0.0,0.0,-0.0,1.0,-0.0,-0.0,0.0,1.0,1.0],"name":"Camera Node"},{"children":[0,1],"name":"Renderer Node"}],"samplers":[{"magFilter":9728,"minFilter":9728,"wrapS":33071,"wrapT":33071}],"scene":0,"scenes":[{"name":"Layer 0","nodes":[2]}],"textures":[{"sampler":0,"source":0}]}