{"accessors":[{"bufferView":0,"byteOffset":0,"componentType":5126,"count":17065,"max":[305547.4428000001,5975308.2021,-36.33728],"min":[305543.44279999996,5947908.2021,-57.36813542443434],"type":"VEC3"},{"bufferView":1,"byteOffset":0,"componentType":5125,"count":102378,"type":"SCALAR"},{"bufferView":2,"byteOffset":0,"componentType":5126,"count":6530,"max":[305547.4428000001,5975308.2021,-41.556022444855316],"min":[305543.44279999996,5947908.2021,-62.2075064],"type":"VEC3"},{"bufferView":3,"byteOffset":0,"componentType":5125,"count":39165,"type":"SCALAR"},{"bufferView":4,"byteOffset":0,"componentType":5126,"count":10428,"max":[305547.4428000001,5975308.2021,-43.63166812741621],"min":[305543.44279999996,5947908.2021,-71.582106],"type":"VEC3"},{"bufferView":5,"byteOffset":0,"componentType":5125,"count":62556,"type":"SCALAR"},{"bufferView":6,"byteOffset":0,"componentType":5126,"count":9115,"max":[305547.4428000001,5975308.2021,-46.019294072184245],"min":[305543.44279999996,5947908.2021,-79.4363908],"type":"VEC3"},{"bufferView":7,"byteOffset":0,"componentType":5125,"count":54678,"type":"SCALAR"},{"bufferView":8,"byteOffset":0,"componentType":5126,"count":10520,"max":[312295.4428,5961610.202100001,-27.68153],"min":[298795.4428,5961606.202099999,-69.3025480299553],"type":"VEC3"},{"bufferView":9,"byteOffset":0,"componentType":5125,"count":63108,"type":"SCALAR"},{"bufferView":10,"byteOffset":0,"componentType":5126,"count":3770,"max":[312295.4428,5961610.202100001,-40.40267760699458],"min":[298795.4428,5961606.202099999,-75.441582],"type":"VEC3"},{"bufferView":11,"byteOffset":0,"componentType":5125,"count":22608,"type":"SCALAR"},{"bufferView":12,"byteOffset":0,"componentType":5126,"count":5879,"max":[312295.4428,5961610.2021,-41.82089641009968],"min":[298795.4428,5961606.202099999,-88.3564132],"type":"VEC3"},{"bufferView":13,"byteOffset":0,"componentType":5125,"count":35262,"type":"SCALAR"},{"bufferView":14,"byteOffset":0,"componentType":5126,"count":4539,"max":[312295.4428,5961610.202100001,-43.25856000236562],"min":[298795.4428,5961606.202099999,-94.30947520000001],"type":"VEC3"},{"bufferView":15,"byteOffset":0,"componentType":5125,"count":27222,"type":"SCALAR"}],"asset":{"generator":"VTK","version":"2.0"},"bufferViews":[{"buffer":0,"byteLength":204780,"byteOffset":0,"target":34962},{"buffer":1,"byteLength":409512,"byteOffset":0,"target":34963},{"buffer":2,"byteLength":78360,"byteOffset":0,"target":34962},{"buffer":3,"byteLength":156660,"byteOffset":0,"target":34963},{"buffer":4,"byteLength":125136,"byteOffset":0,"target":34962},{"buffer":5,"byteLength":250224,"byteOffset":0,"target":34963},{"buffer":6,"byteLength":109380,"byteOffset":0,"target":34962},{"buffer":7,"byteLength":218712,"byteOffset":0,"target":34963},{"buffer":8,"byteLength":126240,"byteOffset":0,"target":34962},{"buffer":9,"byteLength":252432,"byteOffset":0,"target":34963},{"buffer":10,"byteLength":45240,"byteOffset":0,"target":34962},{"buffer":11,"byteLength":90432,"byteOffset":0,"target":34963},{"buffer":12,"byteLength":70548,"byteOffset":0,"target":34962},{"buffer":13,"byteLength":141048,"byteOffset":0,"target":34963},{"buffer":14,"byteLength":54468,"byteOffset":0,"target":34962},{"buffer":15,"byteLength":108888,"byteOffset":0,"target":34963}],"buffers":[{"byteLength":204780,"uri":"data:application/octet-stream;base64,"},{"byteLength":409512,"uri":"data:application/octet-stream;base64,"},{"byteLength":78360,"uri":"data:application/octet-stream;base64,"},{"byteLength":156660,"uri":"data:application/octet-stream;base64,"},{"byteLength":125136,"uri":"data:application/octet-stream;base64,"},{"byteLength":250224,"uri":"data:application/octet-stream;base64,"},{"byteLength":109380,"uri":"data:application/octet-stream;base64,"},{"byteLength":218712,"uri":"data:application/octet-stream;base64,"},{"byteLength":126240,"uri":"data:application/octet-stream;base64,"},{"byteLength":252432,"uri":"data:application/octet-stream;base64,"},{"byteLength":45240,"uri":"data:application/octet-stream;base64,"},{"byteLength":90432,"uri":"data:application/octet-stream;base64,"},{"byteLength":70548,"uri":"data:application/octet-stream;base64,"},{"byteLength":141048,"uri":"data:application/octet-stream;base64,"},{"byteLength":54468,"uri":"data:application/octet-stream;base64,"},{"byteLength":108888,"uri":"data:application/octet-stream;base64,"}],"cameras":[{"perspective":{"aspectRatio":1.3333333333333333,"yfov":0.5235987755982988,"zfar":1000.01,"znear":0.01},"type":"perspective"}],"materials":[{"pbrMetallicRoughness":{"baseColorFactor":[0.0,0.5019607843137255,0.0,1.0],"metallicFactor":0.0,"roughnessFactor":1.0}},{"pbrMetallicRoughness":{"baseColorFactor":[0.0,0.0,1.0,1.0],"metallicFactor":0.0,"roughnessFactor":1.0}},{"pbrMetallicRoughness":{"baseColorFactor":[1.0,0.8431372549019608,0.0,1.0],"metallicFactor":0.0,"roughnessFactor":1.0}},{"pbrMetallicRoughness":{"baseColorFactor":[0.5450980392156862,0.0,0.0,1.0],"metallicFactor":0.0,"roughnessFactor":1.0}},{"pbrMetallicRoughness":{"baseColorFactor":[0.0,0.5019607843137255,0.0,1.0],"metallicFactor":0.0,"roughnessFactor":1.0}},{"pbrMetallicRoughness":{"baseColorFactor":[0.0,0.0,1.0,1.0],"metallicFactor":0.0,"roughnessFactor":1.0}},{"pbrMetallicRoughness":{"baseColorFactor":[1.0,0.8431372549019608,0.0,1.0],"metallicFactor":0.0,"roughnessFactor":1.0}},{"pbrMetallicRoughness":{"baseColorFactor":[0.5450980392156862,0.0,0.0,1.0],"metallicFactor":0.0,"roughnessFactor":1.0}}],"meshes":[{"name":"mesh0","primitives":[{"attributes":{"POSITION":0},"indices":1,"material":0,"mode":4}]},{"name":"mesh1","primitives":[{"attributes":{"POSITION":2},"indices":3,"material":1,"mode":4}]},{"name":"mesh2","primitives":[{"attributes":{"POSITION":4},"indices":5,"material":2,"mode":4}]},{"name":"mesh3","primitives":[{"attributes":{"POSITION":6},"indices":7,"material":3,"mode":4}]},{"name":"mesh4","primitives":[{"attributes":{"POSITION":8},"indices":9,"material":4,"mode":4}]},{"name":"mesh5","primitives":[{"attributes":{"POSITION":10},"indices":11,"material":5,"mode":4}]},{"name":"mesh6","primitives":[{"attributes":{"POSITION":12},"indices":13,"material":6,"mode":4}]},{"name":"mesh7","primitives":[{"attributes":{"POSITION":14},"indices":15,"material":7,"mode":4}]}],"nodes":[{"matrix":[0.0,0.0,1.0000000000000004,0.0,1.0000000000000004,0.0,0.0,0.0,0.0,1.0000000000000004,0.0,0.0,0.0,0.0,0.0,1.0],"mesh":0,"name":"mesh0"},{"matrix":[0.0,0.0,1.0000000000000004,0.0,1.0000000000000004,0.0,0.0,0.0,0.0,1.0000000000000004,0.0,0.0,0.0,0.0,0.0,1.0],"mesh":1,"name":"mesh1"},{"matrix":[0.0,0.0,1.0000000000000004,0.0,1.0000000000000004,0.0,0.0,0.0,0.0,1.0000000000000004,0.0,0.0,0.0,0.0,0.0,1.0],"mesh":2,"name":"mesh2"},{"matrix":[0.0,0.0,1.0000000000000004,0.0,1.0000000000000004,0.0,0.0,0.0,0.0,1.0000000000000004,0.0,0.0,0.0,0.0,0.0,1.0],"mesh":3,"name":"mesh3"},{"matrix":[0.0,0.0,1.0000000000000004,0.0,1.0000000000000004,0.0,0.0,0.0,0.0,1.0000000000000004,0.0,0.0,0.0,0.0,0.0,1.0],"mesh":4,"name":"mesh4"},{"matrix":[0.0,0.0,1.0000000000000004,0.0,1.0000000000000004,0.0,0.0,0.0,0.0,1.0000000000000004,0.0,0.0,0.0,0.0,0.0,1.0],"mesh":5,"name":"mesh5"},{"matrix":[0.0,0.0,1.0000000000000004,0.0,1.0000000000000004,0.0,0.0,0.0,0.0,1.0000000000000004,0.0,0.0,0.0,0.0,0.0,1.0],"mesh":6,"name":"mesh6"},{"matrix":[0.0,0.0,1.0000000000000004,0.0,1.0000000000000004,0.0,0.0,0.0,0.0,1.0000000000000004,0.0,0.0,0.0,0.0,0.0,1.0],"mesh":7,"name":"mesh7"},{"camera":0,"matrix":[1.0,-0.0,0.0,-0.0,-0.0,1.0,-0.0,0.0,0.0,-0.0,1.0,-0.0,-0.0,0.0,1.0,1.0],"name":"Camera Node"},{"children":[0,1,2,3,4,5,6,7,8],"name":"Renderer Node"}],"scene":0,"scenes":[{"name":"Layer 0","nodes":[9]}]}